<?xml version="1.0" standalone="no"?>
<!DOCTYPE svg PUBLIC "-//W3C//DTD SVG 20010904//EN"
 "http://www.w3.org/TR/2001/REC-SVG-20010904/DTD/svg10.dtd">
<svg version="1.0" xmlns="http://www.w3.org/2000/svg"
 width="16.000000pt" height="16.000000pt" viewBox="0 0 16.000000 16.000000"
 preserveAspectRatio="xMidYMid meet">
<metadata>
Created by potrace 1.11, written by Peter Selinger 2001-2013
</metadata>
<g transform="translate(0.000000,16.000000) scale(0.005333,-0.005333)"
fill="#000000" stroke="none">
<path d="M1300 2928 c-19 -5 -47 -12 -62 -15 -40 -8 -42 -30 -8 -73 85 -107
183 -367 205 -541 4 -28 2 -31 -18 -25 -144 44 -356 55 -484 27 -327 -74 -587
-333 -684 -681 -58 -210 -42 -432 47 -683 110 -309 313 -540 604 -687 47 -24
94 -46 105 -51 37 -13 169 -78 225 -110 54 -30 57 -30 150 -24 52 4 97 8 100
10 3 2 28 6 55 9 66 9 257 56 270 67 5 5 17 9 27 9 10 0 26 4 36 9 40 23 151
71 161 71 6 0 11 5 11 10 0 6 5 10 11 10 16 0 152 83 234 144 66 48 207 181
250 236 118 149 193 305 230 480 56 263 34 494 -66 700 -16 33 -29 65 -29 70
0 6 -4 10 -10 10 -5 0 -10 5 -10 10 0 18 -77 117 -141 180 -109 107 -238 183
-379 223 -174 49 -375 44 -524 -15 -27 -10 -50 -17 -51 -16 -2 2 -6 48 -9 103
-7 113 -11 142 -32 238 -30 140 -86 273 -126 301 -25 18 -37 18 -88 4z"/>
</g>
</svg>
